<mxfile host="app.diagrams.net" modified="2022-05-18T08:25:26.657Z" agent="5.0 (Macintosh; Intel Mac OS X 10_15_7) AppleWebKit/537.36 (KHTML, like Gecko) Chrome/100.0.4896.127 Safari/537.36 OPR/86.0.4363.59 (Edition Yx 05)" etag="FGnyLnCq1I07-9PYOyjH" version="18.0.3" type="github">
  <diagram id="4gqZz7MVGAu9xxWceYxt" name="Page-1">
    <mxGraphModel dx="3000" dy="3772" grid="1" gridSize="10" guides="1" tooltips="1" connect="1" arrows="1" fold="1" page="1" pageScale="1" pageWidth="827" pageHeight="1169" math="0" shadow="0">
      <root>
        <mxCell id="0" />
        <mxCell id="1" parent="0" />
        <mxCell id="Vs8tw6H71JixX9djUDcl-1" value="" style="rounded=0;whiteSpace=wrap;html=1;" vertex="1" parent="1">
          <mxGeometry x="80" y="130" width="650" height="400" as="geometry" />
        </mxCell>
        <mxCell id="Vs8tw6H71JixX9djUDcl-3" value="UserService" style="text;strokeColor=none;fillColor=none;align=left;verticalAlign=middle;spacingLeft=4;spacingRight=4;overflow=hidden;points=[[0,0.5],[1,0.5]];portConstraint=eastwest;rotatable=0;fontSize=18;" vertex="1" parent="1">
          <mxGeometry x="100" y="160" width="110" height="30" as="geometry" />
        </mxCell>
        <mxCell id="Vs8tw6H71JixX9djUDcl-17" style="edgeStyle=orthogonalEdgeStyle;rounded=0;orthogonalLoop=1;jettySize=auto;html=1;entryX=1;entryY=0.5;entryDx=0;entryDy=0;fontSize=35;" edge="1" parent="1" source="Vs8tw6H71JixX9djUDcl-4" target="Vs8tw6H71JixX9djUDcl-6">
          <mxGeometry relative="1" as="geometry">
            <Array as="points">
              <mxPoint x="299" y="-1100" />
              <mxPoint x="299" y="-1070" />
            </Array>
          </mxGeometry>
        </mxCell>
        <mxCell id="Vs8tw6H71JixX9djUDcl-18" style="edgeStyle=orthogonalEdgeStyle;rounded=0;orthogonalLoop=1;jettySize=auto;html=1;entryX=0;entryY=0.5;entryDx=0;entryDy=0;fontSize=35;" edge="1" parent="1" source="Vs8tw6H71JixX9djUDcl-4" target="Vs8tw6H71JixX9djUDcl-5">
          <mxGeometry relative="1" as="geometry" />
        </mxCell>
        <mxCell id="Vs8tw6H71JixX9djUDcl-4" value="&lt;font style=&quot;font-size: 35px;&quot;&gt;APP&lt;/font&gt;" style="rounded=1;whiteSpace=wrap;html=1;fontSize=18;" vertex="1" parent="1">
          <mxGeometry x="319" y="-1130" width="120" height="60" as="geometry" />
        </mxCell>
        <mxCell id="Vs8tw6H71JixX9djUDcl-9" value="core" style="shape=cylinder3;whiteSpace=wrap;html=1;boundedLbl=1;backgroundOutline=1;size=15;fontSize=35;" vertex="1" parent="1">
          <mxGeometry x="-840" y="-1450" width="170" height="80" as="geometry" />
        </mxCell>
        <mxCell id="Vs8tw6H71JixX9djUDcl-13" value="" style="group" vertex="1" connectable="0" parent="1">
          <mxGeometry x="-721" y="-1250" width="850" height="360" as="geometry" />
        </mxCell>
        <mxCell id="Vs8tw6H71JixX9djUDcl-6" value="" style="rounded=1;whiteSpace=wrap;html=1;fontSize=35;" vertex="1" parent="Vs8tw6H71JixX9djUDcl-13">
          <mxGeometry width="850" height="359.99999999999994" as="geometry" />
        </mxCell>
        <mxCell id="Vs8tw6H71JixX9djUDcl-7" value="getWdsltoJson" style="rounded=1;whiteSpace=wrap;html=1;fontSize=35;" vertex="1" parent="Vs8tw6H71JixX9djUDcl-13">
          <mxGeometry x="101.5" y="74.05714285714285" width="260" height="61.71428571428571" as="geometry" />
        </mxCell>
        <mxCell id="Vs8tw6H71JixX9djUDcl-8" value="CoreConnnectionConfig" style="text;html=1;strokeColor=none;fillColor=none;align=center;verticalAlign=middle;whiteSpace=wrap;rounded=0;fontSize=35;" vertex="1" parent="Vs8tw6H71JixX9djUDcl-13">
          <mxGeometry x="20" y="22.628571428571426" width="423" height="30.857142857142854" as="geometry" />
        </mxCell>
        <mxCell id="Vs8tw6H71JixX9djUDcl-15" style="edgeStyle=orthogonalEdgeStyle;rounded=0;orthogonalLoop=1;jettySize=auto;html=1;fontSize=35;" edge="1" parent="Vs8tw6H71JixX9djUDcl-13" source="Vs8tw6H71JixX9djUDcl-10" target="Vs8tw6H71JixX9djUDcl-11">
          <mxGeometry relative="1" as="geometry" />
        </mxCell>
        <mxCell id="Vs8tw6H71JixX9djUDcl-10" value="getConnection" style="rounded=1;whiteSpace=wrap;html=1;fontSize=35;" vertex="1" parent="Vs8tw6H71JixX9djUDcl-13">
          <mxGeometry x="106.5" y="174.85714285714283" width="250" height="61.71428571428571" as="geometry" />
        </mxCell>
        <mxCell id="Vs8tw6H71JixX9djUDcl-11" value="API_Platform" style="shape=cube;whiteSpace=wrap;html=1;boundedLbl=1;backgroundOutline=1;darkOpacity=0.05;darkOpacity2=0.1;fontSize=35;" vertex="1" parent="Vs8tw6H71JixX9djUDcl-13">
          <mxGeometry x="510" y="164.57142857142856" width="280" height="82.28571428571428" as="geometry" />
        </mxCell>
        <mxCell id="Vs8tw6H71JixX9djUDcl-14" style="edgeStyle=orthogonalEdgeStyle;rounded=0;orthogonalLoop=1;jettySize=auto;html=1;fontSize=35;" edge="1" parent="1" source="Vs8tw6H71JixX9djUDcl-6" target="Vs8tw6H71JixX9djUDcl-9">
          <mxGeometry relative="1" as="geometry" />
        </mxCell>
        <mxCell id="Vs8tw6H71JixX9djUDcl-29" style="edgeStyle=orthogonalEdgeStyle;rounded=0;orthogonalLoop=1;jettySize=auto;html=1;fontSize=35;" edge="1" parent="1" source="Vs8tw6H71JixX9djUDcl-20" target="Vs8tw6H71JixX9djUDcl-5">
          <mxGeometry relative="1" as="geometry">
            <Array as="points">
              <mxPoint x="-625" y="-610" />
              <mxPoint x="905" y="-610" />
            </Array>
          </mxGeometry>
        </mxCell>
        <mxCell id="Vs8tw6H71JixX9djUDcl-20" value="" style="rounded=1;whiteSpace=wrap;html=1;fontSize=35;" vertex="1" parent="1">
          <mxGeometry x="-1050" y="-530" width="850" height="360" as="geometry" />
        </mxCell>
        <mxCell id="Vs8tw6H71JixX9djUDcl-30" style="edgeStyle=orthogonalEdgeStyle;rounded=0;orthogonalLoop=1;jettySize=auto;html=1;fontSize=35;" edge="1" parent="1" source="Vs8tw6H71JixX9djUDcl-21">
          <mxGeometry relative="1" as="geometry">
            <mxPoint x="910" y="-640.0000000000005" as="targetPoint" />
            <Array as="points">
              <mxPoint x="275" y="-610" />
              <mxPoint x="910" y="-610" />
            </Array>
          </mxGeometry>
        </mxCell>
        <mxCell id="Vs8tw6H71JixX9djUDcl-21" value="" style="rounded=1;whiteSpace=wrap;html=1;fontSize=35;" vertex="1" parent="1">
          <mxGeometry x="-150" y="-530" width="850" height="360" as="geometry" />
        </mxCell>
        <mxCell id="Vs8tw6H71JixX9djUDcl-31" style="edgeStyle=orthogonalEdgeStyle;rounded=0;orthogonalLoop=1;jettySize=auto;html=1;entryX=0.5;entryY=1;entryDx=0;entryDy=0;fontSize=35;" edge="1" parent="1" source="Vs8tw6H71JixX9djUDcl-22" target="Vs8tw6H71JixX9djUDcl-5">
          <mxGeometry relative="1" as="geometry">
            <Array as="points">
              <mxPoint x="1175" y="-610" />
              <mxPoint x="905" y="-610" />
            </Array>
          </mxGeometry>
        </mxCell>
        <mxCell id="Vs8tw6H71JixX9djUDcl-22" value="" style="rounded=1;whiteSpace=wrap;html=1;fontSize=35;" vertex="1" parent="1">
          <mxGeometry x="750" y="-530" width="850" height="360" as="geometry" />
        </mxCell>
        <mxCell id="Vs8tw6H71JixX9djUDcl-23" value="" style="group" vertex="1" connectable="0" parent="1">
          <mxGeometry x="480" y="-1000" width="850" height="360" as="geometry" />
        </mxCell>
        <mxCell id="Vs8tw6H71JixX9djUDcl-5" value="" style="rounded=1;whiteSpace=wrap;html=1;fontSize=35;" vertex="1" parent="Vs8tw6H71JixX9djUDcl-23">
          <mxGeometry width="850" height="360" as="geometry" />
        </mxCell>
        <mxCell id="Vs8tw6H71JixX9djUDcl-16" value="TablesWebSocketConfiguration" style="text;html=1;strokeColor=none;fillColor=none;align=center;verticalAlign=middle;whiteSpace=wrap;rounded=0;fontSize=35;" vertex="1" parent="Vs8tw6H71JixX9djUDcl-23">
          <mxGeometry x="250" y="23" width="60" height="30" as="geometry" />
        </mxCell>
        <mxCell id="Vs8tw6H71JixX9djUDcl-19" value="registerWebSocketHandlers" style="rounded=1;whiteSpace=wrap;html=1;fontSize=35;" vertex="1" parent="Vs8tw6H71JixX9djUDcl-23">
          <mxGeometry x="155" y="150" width="540" height="60" as="geometry" />
        </mxCell>
        <mxCell id="Vs8tw6H71JixX9djUDcl-24" value="TableHandler" style="text;html=1;strokeColor=none;fillColor=none;align=center;verticalAlign=middle;whiteSpace=wrap;rounded=0;fontSize=35;" vertex="1" parent="1">
          <mxGeometry x="-948" y="-510" width="60" height="30" as="geometry" />
        </mxCell>
        <mxCell id="Vs8tw6H71JixX9djUDcl-25" value="BetControlDeviceHandler" style="text;html=1;strokeColor=none;fillColor=none;align=center;verticalAlign=middle;whiteSpace=wrap;rounded=0;fontSize=35;" vertex="1" parent="1">
          <mxGeometry x="950" y="-510" width="60" height="30" as="geometry" />
        </mxCell>
        <mxCell id="Vs8tw6H71JixX9djUDcl-26" value="CustomerMonitorHandler" style="text;html=1;strokeColor=none;fillColor=none;align=center;verticalAlign=middle;whiteSpace=wrap;rounded=0;fontSize=35;" vertex="1" parent="1">
          <mxGeometry x="40" y="-510" width="60" height="30" as="geometry" />
        </mxCell>
      </root>
    </mxGraphModel>
  </diagram>
</mxfile>
